 http://img716.imageshack.us/img716/7964/73fc31.jpg

Country.......: HongKong
Genre.........: Drama, Horror
Date release..: 14.04.2011 [World]
Director......: Lao Jian Hua
Writers.......: Yee Tung Sing
Duration......: 95 min.

Pilot :
Young lvoers Yu and Hoi run away from their families and set up a photo studio in an old and worn-out building. Anxious to develop their fledging business, they're shocked to find out that the shop is haunted! The two mischevious ghosts in the photo studio terrorize the couple by putting them in terrifying. embarrassing and hilarious situationhs, all of which put their love to the test.

Cats :
Jin Gang.........................
Lee Wei..........................
Eddie Peng.......................
Xia Yu Qiao......................

Data Technical :
!!! SAMPLE !!!
Audio.....: Chinese
Subtitles.: English .sub
Format                           : AVI
Format/Info                      : Audio Video Interleave
File size                        : 695 MiB
Duration                         : 1h 34mn
Overall bit rate                 : 1 026 Kbps
Writing application              : VirtualDubMod 1.5.10.2 (build 2540/release)
Writing library                  : VirtualDubMod build 2540/release
Video
ID                               : 0
Format                           : MPEG-4 Visual
Format profile                   : Advanced Simple@L5
Format settings, BVOP            : Yes
Format settings, QPel            : No
Format settings, GMC             : No warppoints
Format settings, Matrix          : Default (MPEG)
Codec ID                         : XVID
Codec ID/Hint                    : XviD
Duration                         : 1h 34mn
Bit rate                         : 898 Kbps
Width                            : 640 pixels
Height                           : 352 pixels
Display aspect ratio             : 16:9
Frame rate                       : 23.976 fps
Color space                      : YUV
Chroma subsampling               : 4:2:0
Bit depth                        : 8 bits
Scan type                        : Progressive
Bits/(Pixel*Frame)               : 0.166
Stream size                      : 608 MiB (87%)
Writing library                  : XviD 1.2.1 (UTC 2008-12-04)
Audio
ID                               : 1
Format                           : MPEG Audio
Format version                   : Version 1
Format profile                   : Layer 3
Mode                             : Joint stereo
Mode extension                   : MS Stereo
Codec ID                         : 55
Codec ID/Hint                    : MP3
Duration                         : 1h 34mn
Bit rate mode                    : Variable
Bit rate                         : 120 Kbps
Channel(s)                       : 2 channels
Sampling rate                    : 48.0 KHz
Stream size                      : 78.5 MiB (11%)
Alignment                        : Aligned on interleaves
Interleave, duration             : 24 ms (0.58 video frame)
Interleave, preload duration     : 513 ms
Writing library                  : LAME3.98a
Encoding settings                : -m j -V 4 -q 3 -lowpass 17 --abr 120

Screen : 
http://img508.imageshack.us/img508/295/opentomidnight2011s1.jpg 
http://img88.imageshack.us/img88/5317/opentomidnight2011s2.jpg 
http://img34.imageshack.us/img34/9245/opentomidnight2011s3.jpg 
http://img7.imageshack.us/img7/9439/opentomidnight2011s4.jpg 
http://img220.imageshack.us/img220/5882/opentomidnight2011s5.jpg